<svg xmlns="http://www.w3.org/2000/svg" width="675" height="192" viewBox="0 0 675 192">
  <circle cx="87" cy="56" r="91" fill="none" stroke="#2b312c" stroke-width="3"/>
  <g transform="translate(87,56) scale(0.216) translate(-716,-513)">
    <path d="M 724.5 246 L 745.5 246 L 754.5 248 Q 774.5 255.5 787 270.5 Q 800 286.5 809 306.5 L 827 355.5 L 842 410.5 L 842 414.5 L 847 431.5 L 858 487.5 L 860 494 L 874 489.5 L 873.5 488 L 877.5 489 L 890.5 485 L 896.5 485 L 903.5 483 L 905.5 483 L 937.5 483 L 957.5 487 L 969.5 492 L 971 491.5 L 970.5 493 Q 988.7 500.3 1000 514.5 Q 1009.1 524.9 1015 538.5 L 1023 562.5 L 1026 578.5 L 1026 585.5 L 1027 586.5 L 1027 596.5 L 1028 597.5 L 1028 651.5 L 1027 652.5 L 1027 665.5 L 1026 666.5 L 1024 692.5 L 1018 720.5 L 1013 735.5 L 1007 747.5 L 993.5 763 L 980.5 771 L 969.5 774 L 960.5 774 L 959.5 775 L 956.5 774 L 942.5 773 L 928.5 768 Q 914.8 760.2 905 748.5 L 891.5 729 L 890 729.5 L 891 727.5 L 876 699.5 L 859 653.5 L 847 606.5 L 845 602.5 L 832.5 543 L 743.5 600 L 579.5 718 L 541.5 742 L 525 750.5 L 525.5 752 L 523.5 751 Q 504.2 762.2 479.5 768 Q 474.8 766.7 473.5 769 L 448.5 769 L 437.5 766 L 421 756 L 414 746.5 L 408 732.5 L 406 723.5 L 405 705.5 L 406 704.5 L 406 691.5 L 407 690.5 L 408 676.5 L 414 647.5 L 428 602.5 L 449 552.5 L 471 509.5 L 493 471.5 L 492.5 470 Q 493.8 472.3 495 469.5 L 513 440.5 L 512.5 439 Q 513.8 441.3 515 438.5 Q 563.6 364.6 626.5 305 Q 650 283 677.5 265 L 700.5 253 L 724.5 246 Z M 730 282 L 717 286 L 697 296 Q 670 313 648 335 L 636 347 L 637 348 L 636 347 Q 601 380 572 420 L 529 483 L 504 526 L 479 576 L 459 626 L 445 676 L 445 681 L 442 693 L 442 705 L 441 706 L 442 719 L 446 729 L 452 733 L 459 735 L 469 735 L 487 730 L 535 706 L 534 705 L 536 705 L 570 684 L 622 646 L 624 643 L 617 646 L 606 648 L 584 648 Q 571 646 564 639 Q 554 632 549 620 L 546 609 L 545 595 L 545 593 L 546 592 L 546 581 L 548 574 L 548 569 L 557 539 Q 566 513 579 492 Q 618 422 672 369 Q 671 366 674 367 L 675 365 L 679 362 L 680 359 L 711 334 L 732 322 L 731 321 L 733 321 Q 748 312 771 311 Q 770 303 764 298 Q 757 288 745 283 L 730 282 Z M 773 344 Q 755 347 743 356 Q 717 372 697 394 Q 698 396 696 395 Q 636 455 598 536 L 599 538 L 598 537 L 585 569 L 581 588 Q 579 602 584 610 Q 588 615 598 615 L 601 616 L 602 615 L 610 615 Q 612 612 619 613 L 631 609 L 666 594 L 699 578 L 773 537 L 818 514 L 817 513 L 819 513 L 828 509 L 802 395 Q 797 383 795 370 L 787 349 L 779 344 L 773 344 Z M 910 516 L 890 520 L 868 527 L 875 549 L 888 577 L 890 576 L 889 578 Q 897 593 908 606 L 925 619 L 942 626 Q 948 624 950 627 L 962 626 L 975 619 L 983 608 L 988 590 L 987 566 L 981 549 L 978 548 L 980 548 L 974 537 Q 964 525 949 519 L 935 516 L 910 516 Z M 887 624 L 894 652 L 906 684 L 919 710 L 934 731 Q 941 738 952 742 Q 965 744 971 738 L 979 728 L 987 708 L 993 679 L 994 664 L 995 663 L 995 651 L 996 650 L 995 648 L 996 645 L 980 655 L 962 660 L 947 660 L 936 658 Q 916 653 904 641 L 889 626 L 887 624 Z" fill="#2b312c"/>
  </g>
  <text x="205" y="115" font-family="'Manrope', 'Inter', sans-serif" font-weight="800" font-size="141" fill="#2b312c" letter-spacing="2">MiN8T</text>
  <text x="207" y="178" font-family="'Manrope', 'Inter', sans-serif" fill="#2b312c" opacity="0.55">
    <tspan font-weight="400" font-size="30" letter-spacing="0.5">Powered by</tspan>
    <tspan dx="10" font-weight="700" font-size="34" letter-spacing="2">ABLA</tspan>
  </text>
</svg>
